<svg width="40" height="31" viewBox="0 0 40 31" fill="none" xmlns="http://www.w3.org/2000/svg">
<path d="M33.8838 2.58428C31.2945 1.377 28.526 0.4996 25.6315 0C25.276 0.640469 24.8607 1.50191 24.5744 2.18719C21.4975 1.72606 18.4489 1.72606 15.4286 2.18719C15.1423 1.50191 14.7176 0.640469 14.3589 0C11.4613 0.4996 8.68959 1.38022 6.10032 2.59067C0.877738 10.4555 -0.538019 18.1249 0.169861 25.6855C3.63375 28.2633 6.99068 29.8293 10.291 30.854C11.1058 29.7364 11.8326 28.5483 12.4586 27.2962C11.2663 26.8447 10.1242 26.2875 9.04512 25.6407C9.3314 25.4293 9.61143 25.2083 9.88197 24.981C16.4637 28.0488 23.6148 28.0488 30.1179 24.981C30.3916 25.2083 30.6716 25.4293 30.9547 25.6407C29.8725 26.2907 28.7273 26.8479 27.5349 27.2995C28.161 28.5483 28.8846 29.7396 29.7026 30.8571C33.0061 29.8324 36.3661 28.2665 39.83 25.6855C40.6606 16.9209 38.4111 9.32185 33.8838 2.58428ZM13.3553 21.0358C11.3795 21.0358 9.75925 19.1977 9.75925 16.9593C9.75925 14.7209 11.3449 12.8796 13.3553 12.8796C15.3657 12.8796 16.9859 14.7177 16.9513 16.9593C16.9545 19.1977 15.3657 21.0358 13.3553 21.0358ZM26.6446 21.0358C24.6688 21.0358 23.0485 19.1977 23.0485 16.9593C23.0485 14.7209 24.6342 12.8796 26.6446 12.8796C28.6549 12.8796 30.2752 14.7177 30.2406 16.9593C30.2406 19.1977 28.6549 21.0358 26.6446 21.0358Z" fill="#5865F2"/>
</svg>
